# xmcd CD database file
#
# Track frame offsets:
#	150
#	12633
#	27809
#	46462
#	59505
#	72811
#	86832
#
# Disc length: 1461 seconds
#
# Revision: 1
# Processed by: cddbd v1.5.2PL0 Copyright (c) Steve Scherf et al.
# Submitted via: CDex 1.70beta3
#
DISCID=5c05b307
DTITLE=Pete Brown Sextet - Peter The Great
DYEAR=1954
DGENRE=Jazz
TTITLE0=There Will Never Be Another You
TTITLE1=I Can't Believe You're In Love With Me
TTITLE2=Used Blues
TTITLE3=Monnlight In Vermont
TTITLE4=The World Is Waiting For Sunrise
TTITLE5=Tea For Two
TTITLE6=Delta Blues
EXTD=YEAR: 1954
EXTT0=
EXTT1=
EXTT2=
EXTT3=
EXTT4=
EXTT5=
EXTT6=
PLAYORDER=
